<svg width="725" height="596" viewBox="0 0 725 596" fill="none" xmlns="http://www.w3.org/2000/svg">
<g filter="url(#filter0_di_26_73)">
<path d="M39.8409 576.437H93.8992C118.813 576.437 131.74 564.645 131.74 543.71V104.041C131.74 83.1039 118.813 71.3145 93.8992 71.3145H39.8409C14.692 71.3145 2 83.1039 2 104.041V543.71C2 564.645 14.692 576.437 39.8409 576.437ZM202.251 576.437H321.179C346.327 576.437 359.02 564.645 359.02 543.71V193.072C359.02 172.136 346.327 160.346 321.179 160.346H202.251C177.102 160.346 164.41 172.136 164.41 193.072V543.71C164.41 564.645 177.102 576.437 202.251 576.437ZM227.4 248.36C217.763 248.36 210.712 242.06 210.712 233.929C210.712 226.205 217.763 220.106 227.4 220.106H296.266C305.667 220.106 312.719 226.205 312.719 233.929C312.719 242.06 305.667 248.36 296.266 248.36H227.4ZM227.4 516.878C217.763 516.878 210.712 510.577 210.712 502.649C210.712 494.723 217.763 488.624 227.4 488.624H296.266C305.667 488.624 312.719 494.723 312.719 502.649C312.719 510.577 305.667 516.878 296.266 516.878H227.4ZM429.532 576.437H500.043C524.955 576.437 537.882 564.645 537.882 543.71V34.7263C537.882 13.7896 524.955 2 500.043 2H429.532C404.617 2 391.69 13.7896 391.69 34.7263V543.71C391.69 564.645 404.617 576.437 429.532 576.437ZM628.372 577.655L673.263 572.574C697.942 570.134 709.225 557.329 706.638 536.392L652.346 109.122C649.761 88.1856 635.657 77.4126 610.745 80.055L566.087 85.34C541.172 87.9825 530.127 100.585 532.712 121.318L587.004 548.791C589.592 569.524 603.457 580.094 628.372 577.655Z" fill="#111010" fill-opacity="0.85" shape-rendering="crispEdges"/>
<path d="M610.803 80.5508C623.182 79.2386 632.797 81.2688 639.627 86.1533C646.236 90.8799 650.309 98.3329 651.721 108.219L651.85 109.184V109.186L706.142 536.454C707.422 546.82 705.263 555.095 699.806 561.082C694.508 566.893 686.035 570.625 674.354 571.955L673.214 572.076L673.207 572.077L628.315 577.157C615.933 578.368 606.376 576.34 599.605 571.506C593.054 566.829 589.038 559.472 587.629 549.684L587.5 548.729V548.728L538.382 161.992V98.1436C538.724 97.713 539.082 97.2921 539.456 96.8828C544.725 91.1207 553.197 87.3902 564.988 85.9678L566.14 85.8369H566.146L610.804 80.5518L610.803 80.5508ZM39.8408 71.8145H93.8994C106.285 71.8145 115.61 74.7456 121.833 80.2021C128.045 85.6493 131.24 93.6791 131.24 104.041V543.71C131.24 554.071 128.045 562.1 121.833 567.548C115.61 573.005 106.285 575.936 93.8994 575.937H39.8408C27.3363 575.937 18.0131 573.004 11.8203 567.549C5.63818 562.102 2.5 554.074 2.5 543.71V104.041C2.5 93.6763 5.63819 85.6471 11.8203 80.2012C18.013 74.746 27.3365 71.8145 39.8408 71.8145ZM202.251 160.846H321.179C333.683 160.846 343.007 163.778 349.2 169.233C355.382 174.679 358.521 182.708 358.521 193.072V543.71C358.521 554.074 355.382 562.102 349.2 567.549C343.007 573.005 333.683 575.937 321.179 575.937H202.251C189.747 575.937 180.423 573.004 174.23 567.549C168.048 562.102 164.91 554.074 164.91 543.71V193.072C164.91 182.708 168.048 174.679 174.23 169.233C180.423 163.778 189.746 160.846 202.251 160.846ZM429.531 2.5H500.043C512.428 2.50003 521.752 5.43123 527.975 10.8877C534.187 16.3349 537.382 24.3645 537.382 34.7266V97.7998C532.872 103.634 531.138 111.241 532.104 120.404L532.216 121.38V121.382L537.382 162.057V543.71C537.382 554.071 534.187 562.1 527.975 567.548C521.752 573.005 512.428 575.936 500.043 575.937H429.531C417.145 575.936 407.821 573.005 401.598 567.548C395.385 562.1 392.19 554.071 392.19 543.71V34.7266C392.19 24.3645 395.385 16.3349 401.598 10.8877C407.821 5.43124 417.145 2.50006 429.531 2.5ZM227.399 488.124C217.568 488.124 210.212 494.372 210.212 502.648C210.212 510.919 217.558 517.378 227.399 517.378H296.267C305.878 517.378 313.219 510.914 313.219 502.648C313.219 494.376 305.868 488.124 296.267 488.124H227.399ZM227.399 219.606C217.573 219.607 210.212 225.851 210.212 233.93C210.212 242.397 217.553 248.86 227.399 248.86H296.267C305.883 248.86 313.219 242.393 313.219 233.93C313.219 225.855 305.863 219.607 296.267 219.606H227.399ZM537.382 154.118L533.208 121.256C532.107 112.422 533.511 105.14 537.382 99.498V154.118Z" stroke="black" shape-rendering="crispEdges"/>
</g>
<defs>
<filter id="filter0_di_26_73" x="0" y="0" width="725" height="596" filterUnits="userSpaceOnUse" color-interpolation-filters="sRGB">
<feFlood flood-opacity="0" result="BackgroundImageFix"/>
<feColorMatrix in="SourceAlpha" type="matrix" values="0 0 0 0 0 0 0 0 0 0 0 0 0 0 0 0 0 0 127 0" result="hardAlpha"/>
<feOffset dx="8" dy="8"/>
<feGaussianBlur stdDeviation="5"/>
<feComposite in2="hardAlpha" operator="out"/>
<feColorMatrix type="matrix" values="0 0 0 0 0.2734 0 0 0 0 0.219093 0 0 0 0 0.219093 0 0 0 0.25 0"/>
<feBlend mode="normal" in2="BackgroundImageFix" result="effect1_dropShadow_26_73"/>
<feBlend mode="normal" in="SourceGraphic" in2="effect1_dropShadow_26_73" result="shape"/>
<feColorMatrix in="SourceAlpha" type="matrix" values="0 0 0 0 0 0 0 0 0 0 0 0 0 0 0 0 0 0 127 0" result="hardAlpha"/>
<feOffset dy="4"/>
<feGaussianBlur stdDeviation="2"/>
<feComposite in2="hardAlpha" operator="arithmetic" k2="-1" k3="1"/>
<feColorMatrix type="matrix" values="0 0 0 0 0.0931678 0 0 0 0 0.0126591 0 0 0 0 0.0126591 0 0 0 0.25 0"/>
<feBlend mode="normal" in2="shape" result="effect2_innerShadow_26_73"/>
</filter>
</defs>
</svg>
